<?xml version="1.0" standalone="no"?>
<!DOCTYPE svg PUBLIC "-//W3C//DTD SVG 20010904//EN"
 "http://www.w3.org/TR/2001/REC-SVG-20010904/DTD/svg10.dtd">
<svg version="1.0" xmlns="http://www.w3.org/2000/svg"
 width="1408.000000pt" height="768.000000pt" viewBox="0 0 1408.000000 768.000000"
 preserveAspectRatio="xMidYMid meet">

<g transform="translate(0.000000,768.000000) scale(0.100000,-0.100000)"
fill="#000000" stroke="none">
<path d="M8388 5254 c-62 -14 -181 -71 -293 -139 -137 -83 -281 -154 -370
-184 -167 -55 -225 -62 -565 -71 -345 -8 -382 -13 -498 -73 -114 -58 -194
-153 -239 -286 -33 -99 -47 -275 -39 -523 3 -104 2 -188 -2 -188 -5 0 -53 55
-108 122 -317 390 -410 504 -623 761 l-154 186 -199 3 -198 3 0 -853 0 -852
198 2 197 3 2 530 c1 292 2 534 2 539 1 5 20 -15 44 -45 23 -30 87 -108 142
-174 55 -66 118 -143 140 -171 22 -28 64 -80 93 -115 30 -35 78 -93 107 -129
29 -36 111 -135 182 -221 71 -85 139 -170 152 -187 l23 -32 201 2 202 3 5 600
5 600 28 57 c75 153 268 201 419 106 56 -35 103 -102 124 -176 16 -55 21 -177
9 -235 -22 -106 -90 -262 -193 -438 -75 -129 -104 -211 -110 -301 -9 -159 64
-239 218 -240 79 -1 148 30 203 91 76 84 97 184 97 459 0 171 3 202 19 237 25
55 52 80 106 100 60 23 164 15 264 -21 59 -21 88 -25 138 -22 69 4 97 20 147
82 29 35 31 44 31 115 0 67 -3 81 -25 108 -35 44 -93 66 -150 58 -25 -4 -96
-29 -158 -55 -216 -93 -302 -78 -302 53 0 102 58 228 144 312 99 96 224 130
386 106 263 -40 327 -38 429 12 61 30 126 119 141 194 47 222 -118 349 -372
287z"/>
<path d="M9219 5215 c-123 -45 -249 -188 -397 -450 -55 -98 -337 -657 -389
-771 -200 -439 -237 -557 -212 -673 35 -164 194 -230 374 -154 148 63 340 299
525 648 89 167 130 218 186 229 23 5 34 2 48 -13 38 -42 8 -127 -105 -296
-169 -255 -197 -389 -108 -519 26 -38 89 -73 148 -82 64 -10 181 21 248 66 94
63 180 151 282 289 50 68 85 96 60 49 -8 -14 -13 -68 -13 -133 -1 -97 2 -115
23 -157 43 -84 131 -125 240 -112 103 12 155 39 240 122 118 116 177 231 260
507 70 232 108 303 176 325 47 16 79 4 124 -45 43 -47 149 -253 157 -307 6
-32 -4 -43 -232 -276 -337 -345 -527 -499 -674 -547 -90 -29 -128 -53 -157
-97 -24 -36 -28 -52 -28 -114 0 -64 3 -77 31 -115 20 -28 50 -54 85 -72 48
-24 63 -27 129 -24 104 5 166 35 257 125 60 60 183 226 183 247 0 4 11 21 24
38 13 18 38 58 55 89 74 135 227 367 314 478 59 74 87 96 87 66 0 -21 78 -202
106 -248 35 -55 85 -102 140 -128 40 -20 64 -24 134 -23 99 1 155 18 215 68
80 65 138 178 121 233 -11 32 -30 32 -92 1 -34 -16 -75 -29 -97 -29 -96 0
-193 89 -277 252 -27 54 -50 105 -50 111 0 14 78 92 155 154 79 64 201 136
303 178 174 71 242 142 242 249 0 71 -31 120 -93 146 -84 36 -171 15 -267 -65
-48 -40 -76 -74 -179 -215 -163 -223 -217 -285 -225 -259 -2 8 -16 59 -31 114
-14 55 -34 120 -42 145 -24 67 -84 151 -132 185 -38 27 -52 30 -124 33 -74 2
-87 0 -132 -25 -53 -30 -132 -120 -163 -187 -24 -50 -56 -144 -117 -346 -71
-234 -117 -322 -198 -381 -106 -77 -211 8 -190 156 8 58 71 188 149 306 87
134 141 242 156 311 10 49 9 59 -8 94 -57 111 -220 94 -317 -34 -68 -91 -77
-107 -152 -294 -149 -368 -270 -523 -413 -534 -60 -5 -74 1 -105 46 -22 32
-22 110 1 175 15 44 85 167 164 288 49 76 108 204 114 251 9 63 -15 124 -61
155 -50 34 -142 33 -220 -3 -62 -28 -188 -146 -242 -226 -33 -49 -141 -228
-181 -300 -40 -72 -152 -231 -199 -281 -54 -58 -143 -103 -188 -95 -93 18
-117 152 -56 311 83 218 87 223 247 370 386 353 595 653 598 855 1 52 -4 73
-23 103 -42 68 -128 93 -212 62z m5 -321 c24 -9 20 -67 -10 -127 -28 -55 -92
-158 -103 -167 -4 -3 -28 -32 -53 -65 -57 -74 -213 -224 -222 -214 -8 7 204
420 230 450 8 8 14 20 14 26 0 15 97 103 114 103 8 0 21 -3 30 -6z"/>
<path d="M2750 5074 c-118 -73 -246 -153 -283 -176 -38 -24 -83 -52 -100 -63
-18 -11 -103 -65 -189 -119 -87 -54 -158 -101 -157 -104 0 -10 480 -326 499
-330 8 -1 106 58 218 132 111 74 208 136 216 138 15 3 52 -20 307 -189 69 -46
132 -83 140 -83 8 0 31 12 50 26 30 22 141 97 322 216 32 21 61 38 65 38 4 0
22 13 41 29 l34 28 -44 27 c-24 16 -116 73 -204 128 -88 56 -194 122 -235 148
-41 26 -129 80 -195 120 -66 41 -127 79 -135 86 -8 6 -32 22 -53 33 -21 12
-48 28 -60 36 -21 13 -36 5 -237 -121z"/>
<path d="M4454 4855 c-2 -5 -3 -388 -2 -850 l3 -840 200 0 200 0 3 847 2 847
-201 3 c-128 2 -203 -1 -205 -7z"/>
<path d="M2914 4382 c-22 -16 -44 -31 -50 -33 -5 -2 -82 -52 -171 -111 -89
-60 -168 -108 -176 -108 -8 0 -25 8 -38 19 -67 52 -285 191 -301 191 -9 0 -32
-12 -50 -27 -18 -16 -50 -37 -70 -47 -21 -11 -38 -23 -38 -27 0 -7 470 -326
495 -335 7 -3 104 57 216 132 112 75 212 139 222 142 21 5 133 -66 191 -123
71 -69 77 -152 21 -287 -105 -251 -120 -405 -42 -432 55 -20 77 -1 137 118 36
72 65 116 85 130 127 88 155 127 191 264 26 100 51 149 100 195 36 33 153 116
216 154 27 15 48 33 48 38 0 6 -37 34 -82 62 l-81 53 -126 -85 c-69 -46 -141
-95 -160 -109 -19 -14 -41 -26 -49 -26 -7 0 -105 61 -216 135 -111 74 -209
137 -217 140 -8 3 -33 -7 -55 -23z"/>
<path d="M2020 3982 l0 -100 84 -53 c47 -30 113 -72 147 -93 34 -22 92 -67
128 -101 36 -34 77 -68 90 -74 44 -24 115 2 207 76 47 38 102 63 139 63 14 0
47 -10 73 -21 65 -30 88 -20 129 60 59 112 40 231 -42 270 -36 17 -42 14 -282
-146 l-172 -115 -198 132 c-109 73 -205 138 -213 145 -8 6 -32 22 -52 34 l-38
23 0 -100z"/>
<path d="M3825 4034 c-126 -84 -146 -112 -194 -274 -41 -136 -66 -172 -186
-265 -70 -55 -88 -78 -141 -177 -74 -139 -129 -185 -207 -175 -83 11 -123 66
-142 197 -20 127 -54 183 -120 196 -53 10 -98 -3 -162 -45 -144 -95 -247 -79
-349 54 -20 28 -45 56 -53 63 -41 33 -91 60 -141 77 -30 10 -67 24 -82 32
l-28 14 0 -106 c0 -73 5 -117 15 -143 10 -22 60 -80 123 -142 104 -102 108
-107 136 -189 48 -141 123 -200 234 -185 54 7 110 -11 150 -49 13 -12 44 -61
68 -109 67 -133 122 -178 219 -178 106 0 178 66 240 223 46 114 106 146 218
113 70 -20 120 -20 160 1 56 28 85 83 110 204 24 116 52 178 112 249 92 107
98 134 103 418 2 133 0 242 -5 242 -4 0 -40 -21 -78 -46z"/>
<path d="M5275 2685 c-5 -2 -22 -6 -37 -9 -33 -8 -94 -59 -112 -95 -68 -135
32 -291 187 -291 190 0 284 206 153 336 -50 51 -136 77 -191 59z m122 -110
c34 -34 35 -38 31 -92 -4 -48 -10 -61 -37 -85 -47 -42 -107 -40 -155 6 -30 28
-36 40 -36 74 0 58 15 89 52 112 53 32 103 27 145 -15z"/>
<path d="M6433 2665 c-39 -18 -61 -36 -84 -72 -28 -44 -30 -54 -27 -115 3 -57
8 -73 34 -105 48 -59 106 -84 184 -80 39 1 81 11 105 22 l40 20 0 80 0 80 -40
0 -40 0 -5 -60 -5 -60 -42 -3 c-59 -4 -106 18 -126 61 -9 19 -17 44 -17 55 0
32 28 90 52 106 31 22 106 20 144 -3 l32 -19 26 27 c26 27 26 28 7 45 -54 49
-159 58 -238 21z"/>
<path d="M5650 2679 c-4 -28 -6 -357 -3 -366 3 -8 22 -13 49 -13 l44 0 0 55 0
55 38 0 c35 0 41 -4 71 -51 33 -50 62 -69 106 -69 38 0 37 14 -5 72 l-39 56
20 18 c61 55 65 152 10 207 l-31 32 -130 4 c-72 1 -130 1 -130 0z m210 -82
c20 -10 25 -20 25 -52 0 -48 -25 -65 -97 -65 l-48 0 0 65 0 65 48 0 c26 0 58
-6 72 -13z"/>
<path d="M6110 2490 l0 -190 45 0 45 0 0 190 0 190 -45 0 -45 0 0 -190z"/>
<path d="M6820 2491 l0 -189 38 -5 c20 -2 40 -2 45 0 4 2 7 89 7 194 l0 189
-45 0 -45 0 0 -189z"/>
<path d="M7060 2490 l0 -190 25 -1 c14 -1 33 -2 43 -3 15 -1 18 12 22 111 l5
113 45 -56 c135 -167 132 -164 171 -164 25 0 39 5 43 16 3 9 6 94 5 190 l-1
174 -49 0 -49 0 7 -112 c7 -134 13 -135 -109 14 -77 93 -82 98 -119 98 l-39 0
0 -190z"/>
<path d="M7770 2492 l0 -190 41 -4 c26 -2 43 1 46 8 2 7 3 55 1 108 -2 53 0
96 3 96 3 0 12 -12 20 -27 7 -16 31 -54 52 -86 44 -67 69 -72 100 -22 10 17
34 55 53 85 l33 55 1 -107 0 -108 45 0 45 0 0 190 0 190 -40 0 c-30 0 -43 -5
-53 -22 -8 -13 -38 -64 -68 -115 -29 -51 -56 -90 -59 -87 -3 3 -35 54 -71 112
-65 106 -66 107 -107 110 l-42 3 0 -189z"/>
<path d="M8350 2490 l0 -190 50 0 50 0 0 50 c0 38 5 57 21 73 l20 22 20 -25
c98 -122 108 -130 160 -130 27 0 49 3 49 7 0 8 -42 63 -107 141 -29 34 -53 66
-53 71 0 5 32 43 70 84 39 41 70 78 70 81 0 3 -21 6 -46 6 -45 0 -49 -2 -121
-80 -42 -44 -80 -80 -84 -80 -5 0 -9 36 -9 80 l0 80 -45 0 -45 0 0 -190z"/>
<path d="M8800 2645 c0 -34 1 -35 40 -35 l40 0 0 -154 0 -153 42 -6 c23 -3 46
-3 50 -1 4 3 8 90 8 195 l0 189 -90 0 -90 0 0 -35z"/>
</g>
</svg>
